<svg xmlns="http://www.w3.org/2000/svg" viewBox="0 0 1440 320"><path fill="#43444B" fill-opacity="0.2" d="M0,192L0,224L62.6,224L62.6,128L125.2,128L125.2,32L187.8,32L187.8,224L250.4,224L250.4,128L313,128L313,224L375.7,224L375.7,192L438.3,192L438.3,256L500.9,256L500.9,128L563.5,128L563.5,128L626.1,128L626.1,64L688.7,64L688.7,96L751.3,96L751.3,64L813.9,64L813.9,96L876.5,96L876.5,224L939.1,224L939.1,192L1001.7,192L1001.7,320L1064.3,320L1064.3,192L1127,192L1127,160L1189.6,160L1189.6,256L1252.2,256L1252.2,288L1314.8,288L1314.8,256L1377.4,256L1377.4,224L1440,224L1440,320L1377.4,320L1377.4,320L1314.8,320L1314.8,320L1252.2,320L1252.2,320L1189.6,320L1189.6,320L1127,320L1127,320L1064.3,320L1064.3,320L1001.7,320L1001.7,320L939.1,320L939.1,320L876.5,320L876.5,320L813.9,320L813.9,320L751.3,320L751.3,320L688.7,320L688.7,320L626.1,320L626.1,320L563.5,320L563.5,320L500.9,320L500.9,320L438.3,320L438.3,320L375.7,320L375.7,320L313,320L313,320L250.4,320L250.4,320L187.8,320L187.8,320L125.2,320L125.2,320L62.6,320L62.6,320L0,320L0,320Z"></path></svg>