<?xml version="1.0" encoding="UTF-8"?>
<svg width="484px" height="308px" viewBox="0 0 484 308" version="1.1" xmlns="http://www.w3.org/2000/svg" xmlns:xlink="http://www.w3.org/1999/xlink">
    <title>image-contact-saas-x-template</title>
    <g id="Page-1" stroke="none" stroke-width="1" fill="none" fill-rule="evenodd">
        <g id="image-contact-saas-x-template">
            <rect id="Rectangle" fill="#FFFFFF" fill-rule="nonzero" x="238.705" y="13.9193" width="86.2064" height="109.688" rx="10.1115"></rect>
            <rect id="Rectangle" fill="#FFFFFF" fill-rule="nonzero" x="237.087" y="11.0059" width="89.7638" height="118.176" rx="10.1115"></rect>
            <rect id="Rectangle" fill="#B1B3CB" fill-rule="nonzero" x="265.793" y="95.25" width="32.354" height="4.25353" rx="2.126765"></rect>
            <rect id="Rectangle" fill="#D9DBE9" fill-rule="nonzero" x="255.275" y="106.18" width="53.3906" height="4.25353" rx="2.126765"></rect>
            <rect id="Rectangle" fill="#D9DBE9" fill-rule="nonzero" x="258.595" y="113.758" width="46.7508" height="4.25353" rx="2.126765"></rect>
            <path d="M274.187,78.7788 C270.529,77.6425 267.163,75.7186 264.328,73.1424 C261.492,70.5662 259.256,67.4002 257.775,63.8669 C256.294,60.3337 255.605,56.519 255.756,52.6909 C255.907,48.8629 256.895,45.1144 258.65,41.7089" id="Path" stroke="#FFC147" stroke-width="10.6338" stroke-linecap="round"></path>
            <path d="M257.438,44.4286 C259.614,38.6894 263.732,33.8946 269.078,30.8786 C274.424,27.8627 280.657,26.8165 286.695,27.9223 C292.732,29.028 298.19,32.2157 302.12,36.9304 C306.05,41.6452 308.202,47.5885 308.202,53.7262" id="Path" stroke="#5588CC" stroke-width="10.6338" stroke-linecap="round"></path>
            <path d="M308.202,53.7262 C308.202,58.4441 306.929,63.0746 304.519,67.1302 C302.108,71.1857 298.648,74.5161 294.504,76.7705 C290.36,79.0249 285.684,80.12 280.97,79.9403 C276.255,79.7607 271.676,78.3129 267.716,75.7496" id="Path" stroke="#A2E793" stroke-width="10.6338" stroke-linecap="round"></path>
            <path d="M216.472,138.837 L207.427,138.837 C205.049,138.837 203.121,140.765 203.121,143.143 L203.121,151.637 C203.121,154.016 205.049,155.943 207.427,155.943 L216.472,155.943 C218.85,155.943 220.778,154.016 220.778,151.637 L220.778,143.143 C220.778,140.765 218.85,138.837 216.472,138.837 Z" id="Path" fill="#5588CC" fill-rule="nonzero"></path>
            <path d="M182.531,0 L173.486,0 C171.108,0 169.18,1.9278 169.18,4.3059 L169.18,12.8007 C169.18,15.1788 171.108,17.1066 173.486,17.1066 L182.531,17.1066 C184.909,17.1066 186.837,15.1788 186.837,12.8007 L186.837,4.3059 C186.837,1.9278 184.909,0 182.531,0 Z" id="Path" fill="#FFC147" fill-rule="nonzero"></path>
            <path d="M466.498,126.429 L457.453,126.429 C455.075,126.429 453.147,128.357 453.147,130.735 L453.147,139.229 C453.147,141.607 455.075,143.535 457.453,143.535 L466.498,143.535 C468.876,143.535 470.804,141.607 470.804,139.229 L470.804,130.735 C470.804,128.357 468.876,126.429 466.498,126.429 Z" id="Path" fill="#FFC147" fill-rule="nonzero"></path>
            <path d="M396.704,4.439 L383.308,4.439 C379.786,4.439 376.931,7.2941 376.931,10.816 L376.931,23.397 C376.931,26.919 379.786,29.7741 383.308,29.7741 L396.704,29.7741 C400.226,29.7741 403.081,26.919 403.081,23.397 L403.081,10.816 C403.081,7.2941 400.226,4.439 396.704,4.439 Z" id="Path" fill="#5588CC" fill-rule="nonzero"></path>
            <path d="M38.5079,55.527 L25.1119,55.527 C21.59,55.527 18.7349,58.3821 18.7349,61.904 L18.7349,74.485 C18.7349,78.007 21.59,80.8621 25.1119,80.8621 L38.5079,80.8621 C42.0298,80.8621 44.885,78.007 44.885,74.485 L44.885,61.904 C44.885,58.3821 42.0298,55.527 38.5079,55.527 Z" id="Path" fill="#5588CC" fill-rule="nonzero"></path>
            <rect id="Rectangle" fill="#A2E793" fill-rule="nonzero" x="292.682" y="194.809" width="41.6724" height="5.87021" rx="2.9351"></rect>
            <rect id="Rectangle" fill="#A2E793" fill-rule="nonzero" x="37.5303" y="102.436" width="41.6724" height="5.87021" rx="2.9351"></rect>
            <path d="M385.699,160.173 L299.861,160.173 C294.709,160.173 290.531,155.995 290.531,150.843 L290.531,94.862 C290.531,89.7103 294.709,85.5322 299.861,85.5322 L385.699,85.5322 C390.851,85.5322 395.029,89.7103 395.029,94.862 L395.029,150.843 C395.029,155.995 390.851,160.173 385.699,160.173 Z" id="Path" fill="#80B0F0" fill-rule="nonzero"></path>
            <path d="M342.784,109.791 L290.693,152.411 C291.442,156.813 295.248,160.173 299.865,160.173 L385.702,160.173 C390.319,160.173 394.126,156.813 394.874,152.411 L342.784,109.791 Z" id="Path" fill="#5588CC" fill-rule="nonzero"></path>
            <path d="M290.692,93.295 L338.743,132.61 C341.092,134.532 344.471,134.532 346.823,132.61 L394.873,93.295 C394.125,88.8929 390.318,85.5322 385.701,85.5322 L299.864,85.5322 C295.247,85.5322 291.441,88.8929 290.692,93.295 Z" id="Path" fill="#DFEDFF" fill-rule="nonzero"></path>
            <path d="M381.216,180.733 L408.53,180.733 C415.684,180.733 421.484,174.933 421.484,167.778 L421.484,142.136 C421.484,134.981 415.684,129.182 408.53,129.182 L381.216,129.182 C374.061,129.182 368.262,134.981 368.262,142.136 L368.262,167.778 C368.262,174.933 374.061,180.733 381.216,180.733 Z" id="Path" fill="#A2E793" fill-rule="nonzero"></path>
            <path d="M403.081,151.42 L381.868,151.42 C380.566,151.42 379.511,152.475 379.511,153.777 L379.511,156.134 C379.511,157.436 380.566,158.491 381.868,158.491 L403.081,158.491 L403.081,151.42 Z" id="Path" fill="#FFFFFF" fill-rule="nonzero"></path>
            <path d="M398.367,164.468 C398.191,164.468 398.015,164.429 397.85,164.348 C397.445,164.151 397.188,163.741 397.188,163.29 L397.188,146.624 C397.188,146.174 397.445,145.762 397.85,145.566 C398.256,145.368 398.736,145.418 399.092,145.695 L409.782,154.028 C410.068,154.251 410.235,154.594 410.235,154.958 C410.235,155.322 410.068,155.664 409.782,155.888 L399.092,164.221 C398.881,164.385 398.625,164.468 398.367,164.468 Z" id="Path" fill="#FFFFFF" fill-rule="nonzero"></path>
            <path d="M20.7036,284.087 C20.7886,283.923 20.8609,283.753 20.9198,283.579 C21.0711,283.2 21.2441,282.714 21.471,282.119 C21.9466,280.844 22.5519,278.974 23.3518,276.715 C24.8758,272.1 26.789,265.658 28.821,258.513 C30.8531,251.368 32.7014,244.926 34.1498,240.289 C34.874,238.019 35.4577,236.16 35.89,234.798 C36.0846,234.193 36.2359,233.717 36.3548,233.307 C36.4212,233.136 36.4683,232.958 36.4953,232.777 C36.3989,232.933 36.3226,233.1 36.2683,233.274 C36.1278,233.663 35.9441,234.15 35.7171,234.744 C35.2415,236.02 34.6362,237.879 33.8472,240.149 C32.3123,244.764 30.3991,251.206 28.3779,258.351 C26.3566,265.495 24.5299,271.959 23.0383,276.574 C22.3249,278.844 21.7304,280.703 21.3089,282.055 C21.1143,282.671 20.963,283.135 20.8333,283.557 C20.7729,283.729 20.7294,283.906 20.7036,284.087 Z" id="Path" fill="#E0E0E0" fill-rule="nonzero"></path>
            <path d="M72.9658,238.981 L40.334,206.198 L56.7418,176.063 C82.3247,159.547 107.889,156.402 107.889,156.402 C125.028,155.237 142.245,156.294 159.112,159.547 C181.689,163.902 184.481,183.175 184.481,183.175 L188.177,250.806 L192.144,305.877 L90.3789,307.931 L72.9658,239.025" id="Path" fill="#5588CC" fill-rule="nonzero"></path>
            <path d="M127.788,304.71 L36.637,305.791 C31.6157,305.849 26.6619,304.63 22.241,302.249 C17.82,299.867 14.077,296.4 11.3635,292.175 C8.64995,287.95 7.05494,283.104 6.72828,278.093 C6.40162,273.082 7.35402,268.07 9.49603,263.528 L48.4727,191.25 L83.9797,215.245 L59.7571,265.474 L133.538,266.792 L127.788,304.71 Z" id="Path" fill="#5588CC" fill-rule="nonzero"></path>
            <path d="M182.126,177.509 L254.403,285.081 L211.729,287.87 C211.729,287.87 186.242,247.715 186.815,248.536 C187.831,250.05 182.126,177.509 182.126,177.509 Z" id="Path" fill="#5588CC" fill-rule="nonzero"></path>
            <path d="M82.1417,221.741 C82.1443,221.543 82.1771,221.346 82.239,221.158 C82.3471,220.725 82.466,220.185 82.6281,219.515 C82.9632,218.099 83.4604,216.045 83.9684,213.494 C84.4764,210.943 85.0493,207.874 85.406,204.458 C85.845,200.756 85.845,197.016 85.406,193.314 C84.8195,189.644 83.5393,186.118 81.6337,182.927 C80.1022,180.299 78.2901,177.846 76.2293,175.609 C74.8402,174.08 73.3603,172.637 71.7976,171.286 C71.202,170.82 70.6319,170.322 70.0898,169.794 C70.2658,169.881 70.4324,169.986 70.5871,170.107 C70.8897,170.334 71.3761,170.648 71.9382,171.113 C73.5635,172.396 75.0951,173.794 76.5211,175.296 C78.6516,177.516 80.5227,179.971 82.0985,182.613 C84.071,185.854 85.3927,189.448 85.9896,193.195 C86.4176,196.943 86.3886,200.728 85.9032,204.469 C85.5381,207.512 85.0186,210.536 84.3467,213.527 C83.7846,216.088 83.2658,218.131 82.8226,219.536 C82.6281,220.239 82.4551,220.779 82.3363,221.147 C82.2907,221.351 82.2256,221.55 82.1417,221.741 L82.1417,221.741 Z" id="Path" fill="#2D21B3" fill-rule="nonzero"></path>
            <path d="M79.2022,225.632 C79.0462,226.195 78.8362,226.742 78.5753,227.265 C78.143,228.345 77.4944,229.794 76.6622,231.588 C75.0084,235.252 72.6629,240.289 69.9607,245.802 C67.2585,251.314 64.7076,256.254 62.816,259.853 C61.8649,261.626 61.0866,263.096 60.5354,264.036 C60.2722,264.56 59.9686,265.062 59.6274,265.539 C59.8216,264.987 60.0601,264.452 60.3408,263.939 C60.8921,262.858 61.6055,261.41 62.5026,259.669 L69.4959,245.618 C72.1441,240.138 74.5544,235.187 76.3487,231.48 C77.1918,229.74 77.8836,228.291 78.424,227.156 C78.6403,226.628 78.9006,226.118 79.2022,225.632 L79.2022,225.632 Z" id="Path" fill="#3E395F" fill-rule="nonzero"></path>
            <path d="M127.787,304.71 C127.787,304.71 127.787,304.645 127.787,304.526 C127.787,304.407 127.787,304.191 127.787,303.964 C127.841,303.445 127.917,302.721 128.003,301.802 C128.219,299.878 128.522,297.144 128.9,293.696 C129.7,286.702 130.846,276.866 132.143,265.268 L132.402,265.549 L105.478,265.549 L58.4484,265.474 L44.1808,265.387 L40.3004,265.333 L39.2844,265.333 L38.9385,265.333 C39.0534,265.319 39.1695,265.319 39.2844,265.333 L40.3004,265.333 L44.1808,265.279 L58.4484,265.193 L105.553,265.117 L132.478,265.117 L132.77,265.117 L132.77,265.398 C131.343,276.985 130.143,286.821 129.279,293.804 C128.846,297.241 128.49,299.976 128.198,301.9 C128.083,302.807 127.985,303.528 127.906,304.061 L127.819,304.613 C127.809,304.645 127.798,304.71 127.787,304.71 Z" id="Path" fill="#2D21B3" fill-rule="nonzero"></path>
            <path d="M60.3956,266.274 C59.7427,265.553 59.1362,264.791 58.5797,263.993 C55.6667,260.336 52.0594,257.291 47.9654,255.032 C47.0911,254.609 46.2396,254.14 45.4146,253.627 C46.374,253.852 47.2953,254.216 48.1492,254.708 C52.4131,256.815 56.1005,259.927 58.8932,263.777 C59.5068,264.536 60.0124,265.376 60.3956,266.274 L60.3956,266.274 Z" id="Path" fill="#2D21B3" fill-rule="nonzero"></path>
            <path d="M189.691,273.429 C189.612,273.121 189.561,272.806 189.54,272.489 C189.464,271.829 189.367,270.932 189.237,269.797 C188.988,267.463 188.653,264.079 188.297,259.896 C187.551,251.52 186.697,239.932 185.94,227.135 C185.184,214.337 184.654,202.728 184.351,194.33 C184.2,190.125 184.092,186.764 184.049,184.375 C184.049,183.24 184.049,182.343 183.995,181.673 C183.978,181.36 183.978,181.046 183.995,180.733 C184.055,181.043 184.087,181.357 184.092,181.673 C184.092,182.332 184.178,183.24 184.243,184.375 C184.362,186.775 184.524,190.158 184.73,194.308 C185.13,202.707 185.724,214.294 186.481,227.102 C187.237,239.911 188.037,251.476 188.643,259.864 C188.967,264.004 189.226,267.43 189.41,269.786 C189.496,270.867 189.561,271.819 189.615,272.478 C189.669,272.792 189.695,273.11 189.691,273.429 L189.691,273.429 Z" id="Path" fill="#2D21B3" fill-rule="nonzero"></path>
            <path d="M235.023,269.084 C234.637,268.79 234.275,268.465 233.942,268.111 L230.981,265.258 L220.81,255.292 L221.264,255.108 C221.177,257.767 221.091,260.642 220.993,263.636 C220.896,266.63 220.777,269.603 220.68,272.283 L220.68,272.91 L220.237,272.467 L210.336,262.361 L207.504,259.41 C207.152,259.075 206.827,258.714 206.531,258.329 C206.916,258.625 207.278,258.95 207.612,259.302 L210.552,262.145 L220.604,272.11 L220.14,272.294 C220.226,269.592 220.323,266.674 220.421,263.647 C220.518,260.621 220.637,257.778 220.734,255.119 L220.734,254.503 L221.166,254.935 L231.186,265.052 L234.051,268.014 C234.404,268.343 234.729,268.701 235.023,269.084 L235.023,269.084 Z" id="Path" fill="#E0E0E0" fill-rule="nonzero"></path>
            <path d="M130.846,279.06 C130.846,279.06 149.027,273.818 155.047,272.283 C157.393,271.689 167.434,276.985 174.374,281.395 C174.374,281.395 183.929,287.059 183.161,288.799 C182.307,290.723 178.838,290.334 173.163,287.718 C173.163,287.718 175.13,293.415 171.271,293.285 C171.271,293.285 173.185,299.446 169.574,300.084 C165.964,300.721 165.121,292.863 161.943,292.442 C158.766,292.02 152.215,291.588 152.215,291.588 C152.215,291.588 146.735,300.667 142.488,301.316 C138.24,301.964 128.436,300.808 128.436,300.808 L130.846,279.06 Z" id="Path" fill="#FCD0CA" fill-rule="nonzero"></path>
            <path d="M161.879,280.314 C163.659,281.107 165.36,282.066 166.96,283.179 C168.657,284.139 170.257,285.261 171.737,286.529 C168.256,284.786 164.954,282.704 161.879,280.314 L161.879,280.314 Z" id="Path" fill="#F9A799" fill-rule="nonzero"></path>
            <path d="M160.809,283.849 C162.885,284.502 164.903,285.33 166.84,286.324 C168.842,287.138 170.773,288.118 172.612,289.253 C170.534,288.607 168.516,287.782 166.581,286.789 C164.574,285.979 162.643,284.995 160.809,283.849 Z" id="Path" fill="#F9A799" fill-rule="nonzero"></path>
            <path d="M162.754,292.29 C165.5,292.28 168.235,292.644 170.883,293.371 C168.137,293.379 165.403,293.015 162.754,292.29 L162.754,292.29 Z" id="Path" fill="#F9A799" fill-rule="nonzero"></path>
            <path d="M107.187,105.055 C107.401,105.756 107.404,106.504 107.196,107.206 C106.987,107.908 106.577,108.533 106.015,109.004 C105.454,109.474 104.767,109.769 104.039,109.851 C103.311,109.933 102.575,109.799 101.923,109.465 C99.4587,108.222 99.1452,104.818 99.6316,102.104 C100.118,99.391 101.037,96.484 99.9018,93.965 C99.0263,92.041 97.1348,90.8201 95.6648,89.3068 C94.3675,87.9915 93.3928,86.3935 92.8171,84.6381 C92.2413,82.8828 92.0802,81.0179 92.3464,79.1898 C92.658,77.3671 93.4667,75.6659 94.6835,74.2736 C95.9003,72.8813 97.478,71.8521 99.2425,71.2993 C102.863,70.2941 107.327,71.4074 110.051,68.7809 C112.008,66.8785 112.127,63.7764 113.64,61.5065 C115.985,57.9829 120.947,57.4208 125.14,57.9937 C129.334,58.5665 133.593,59.9176 137.7,58.8908 C141.127,58.0369 143.937,55.6481 147.158,54.1781 C150.669,52.5734 154.593,52.106 158.382,52.8411 C162.171,53.5763 165.636,55.4773 168.292,58.2784 C170.948,61.0795 172.662,64.6405 173.194,68.4635 C173.727,72.2865 173.051,76.1803 171.262,79.6005 C170.069,82.1034 168.039,84.1107 165.522,85.2751" id="Path" fill="#3E395F" fill-rule="nonzero"></path>
            <path d="M127.701,181.392029 C138.988,181.37 148.642,171.427 148.486,160.272 C148.447,157.516 148.216,153.349 148.216,153.349 C148.216,153.349 164.905,151.674 166.007,135.136 C167.11,118.599 166.321,80.4328 166.321,80.4328 C157.138,75.8773 146.906,73.8533 136.681,74.5696 C126.455,75.2859 116.606,78.7165 108.148,84.5078 L105.597,86.2696 L106.84,160.812 C106.974,172.075 116.438,181.411 127.701,181.392029 Z" id="Path" fill="#FCD0CA" fill-rule="nonzero"></path>
            <path d="M148.628,153.122 C140.976,152.849 133.579,150.306 127.377,145.815 C127.377,145.815 131.831,157.997 148.422,157.413 L148.628,153.122 Z" id="Path" fill="#FFADC1" fill-rule="nonzero"></path>
            <path d="M166.807,84.6266 C166.807,84.6266 156.809,89.7067 143.568,83.416 C134.921,79.287 124.793,77.3738 122.61,79.1573 C120.427,80.9407 120.135,89.804 111.661,92.56 C111.661,92.56 112.579,109.487 105.813,109.011 C99.0467,108.536 102.765,82.2378 102.765,82.2378 L119.119,73.8502 L137.072,70.0995 L154.096,72.164 L167.304,75.5039 L166.807,84.6266 Z" id="Path" fill="#3E395F" fill-rule="nonzero"></path>
            <path d="M107.047,103.575 C106.776,103.434 95.8595,99.586 95.6109,110.925 C95.3623,122.263 106.787,120.177 106.809,119.853 C106.83,119.528 107.047,103.575 107.047,103.575 Z" id="Path" fill="#FCD0CA" fill-rule="nonzero"></path>
            <path d="M103.435,115.475 C103.435,115.475 103.23,115.616 102.895,115.756 C102.42,115.949 101.889,115.949 101.414,115.756 C100.225,115.291 99.2524,113.367 99.2524,111.324 C99.2511,110.351 99.4613,109.388 99.8685,108.503 C99.9849,108.152 100.184,107.834 100.45,107.577 C100.715,107.319 101.038,107.129 101.393,107.023 C101.621,106.981 101.857,107.014 102.066,107.117 C102.274,107.221 102.444,107.388 102.549,107.595 C102.69,107.909 102.614,108.136 102.668,108.157 C102.722,108.179 102.917,107.974 102.841,107.509 C102.782,107.226 102.629,106.971 102.409,106.785 C102.103,106.544 101.715,106.432 101.328,106.471 C100.86,106.552 100.42,106.751 100.051,107.05 C99.6822,107.349 99.3961,107.738 99.22,108.179 C98.7208,109.152 98.4614,110.231 98.4633885,111.324 C98.4633885,113.605 99.6091,115.778 101.23,116.286 C101.534,116.378 101.853,116.403 102.167,116.358 C102.481,116.313 102.781,116.2 103.046,116.026 C103.435,115.756 103.435,115.497 103.435,115.475 Z" id="Path" fill="#F9A799" fill-rule="nonzero"></path>
            <path d="M101.272,68.0891 C102.566,67.7097 103.947,67.7595 105.21,68.231 C106.473,68.7026 107.549,69.5705 108.277,70.7048 C107.269,69.9416 106.182,69.2893 105.034,68.7592 C103.807,68.4058 102.546,68.1812 101.272,68.0891 L101.272,68.0891 Z" id="Path" fill="#3E395F" fill-rule="nonzero"></path>
            <path d="M108.094,61.3011 C108.299,61.3011 107.986,63.6899 108.375,66.5218 C108.711,68.2244 109.244,69.8821 109.964,71.4614 C109.964,71.4614 109.488,71.0615 109.013,70.2184 C108.402,69.0964 107.999,67.8734 107.824,66.6083 C107.509,64.8417 107.601,63.0266 108.094,61.3011 Z" id="Path" fill="#3E395F" fill-rule="nonzero"></path>
            <path d="M216.788,292.766 C219.216,297.274 222.895,300.985 227.382,303.452 C231.869,305.92 236.973,307.04 242.08,306.677 L242.08,306.677 C248.115,306.255 253.825,303.787 258.268,299.682 C262.711,295.577 265.622,290.08 266.519,284.097 L272.788,212.338 L247.679,206.133 L237.422,262.339 C237.422,262.339 232.06,285.892 216.788,292.766 Z" id="Path" fill="#FCD0CA" fill-rule="nonzero"></path>
            <path d="M247.453,211.332 L248.285,198.74 C248.285,198.74 251.842,170.486 251.842,167.719 C251.842,164.541 253.366,163.763 254.544,163.849 C256.37,163.968 257.667,166.227 257.786,168.962 C257.786,169.902 257.7,184.84 257.7,184.84 C258.564,183.428 259.528,182.081 260.586,180.808 C262.748,178.009 267.979,176.409 273.308,176.582 C278.637,176.755 280.096,177.274 280.128,179.338 C280.109,179.733 280.003,180.118 279.816,180.466 C279.628,180.814 279.366,181.115 279.047,181.349 C278.064,182.168 276.814,182.599 275.534,182.559 C267.006,182.408 264.726,186.958 264.726,186.958 L264.618,188.612 C264.618,188.612 269.795,184.905 273.924,186.45 C274.534,186.676 275.093,187.022 275.567,187.466 C276.729,187.471 277.871,187.78 278.877,188.361 C279.884,188.943 280.721,189.778 281.305,190.783 C281.89,191.788 282.201,192.928 282.209158,194.091 C282.217,195.253 281.921,196.398 281.35,197.411 C281.127,197.93 280.751,198.369 280.272,198.669 C279.793,198.968 279.233,199.114 278.669,199.086 C278.097,198.914 277.58,198.598 277.167,198.167 C276.925,197.962 276.668,197.774 276.399,197.605 L275.448,202.177 C275.448,202.177 272.757,212.338 272.086,216.899" id="Path" fill="#FCD0CA" fill-rule="nonzero"></path>
            <path d="M249.906,210.349 C251.463,210.781 253.073,209.635 253.916,208.252 C254.759,206.868 255.116,205.236 255.851,203.788 C258.078,199.464 263.417,197.411 265.46,192.979 C265.741,192.363 265.892,191.52 265.352,191.109 C264.811,190.698 264.141,191.033 263.59,191.336 L249.539,199.118" id="Path" fill="#FCD0CA" fill-rule="nonzero"></path>
            <path d="M249.527,199.097 C249.964,198.709 250.447,198.375 250.964,198.102 C251.916,197.508 253.31,196.686 255.039,195.681 L261.146,192.19 L262.908,191.196 C263.565,190.676 264.401,190.439 265.232,190.536 C265.489,190.619 265.714,190.779 265.878,190.993 C266.043,191.207 266.138,191.466 266.151,191.736 C266.179,192.18 266.101,192.625 265.924,193.033 C265.599,193.754 265.193,194.436 264.713,195.065 C262.768,197.594 260.249,199.183 258.433,201.032 C257.55,201.868 256.8,202.834 256.207,203.896 C255.677,204.89 255.342,205.928 254.931,206.868 C254.679,207.653 254.258,208.373 253.698,208.978 C253.138,209.583 252.452,210.058 251.689,210.37 C250.532,210.716 249.884,210.37 249.927,210.306 C250.487,210.323 251.045,210.231 251.57,210.035 C252.246,209.69 252.843,209.208 253.323,208.62 C253.803,208.032 254.155,207.351 254.358,206.62 C254.705,205.573 255.105,204.545 255.558,203.539 C256.154,202.389 256.932,201.341 257.86,200.437 C259.72,198.491 262.184,196.859 264,194.514 C264.428,193.947 264.79,193.335 265.081,192.687 C265.351,192.071 265.308,191.455 264.962,191.39 C264.616,191.325 263.935,191.617 263.341,191.952 L261.546,192.925 L255.353,196.297 C253.58,197.238 252.11,197.973 251.137,198.459 C250.633,198.747 250.091,198.961 249.527,199.097 L249.527,199.097 Z" id="Path" fill="#F9A799" fill-rule="nonzero"></path>
            <path d="M264.422,188.731 C264.517,187.708 264.855,186.723 265.406,185.856 C266.046,184.967 266.955,184.307 268,183.975 C269.308,183.545 270.676,183.326 272.053,183.327 C273.467,183.341 274.878,183.218 276.268,182.959 C277.433,182.722 278.514,182.181 279.403,181.392 C279.698,181.119 279.928,180.783 280.074,180.408 C280.22,180.034 280.279,179.631 280.246,179.23 C280.23,178.936 280.133,178.651 279.965,178.409 C279.911,178.409 279.965,178.722 280.019,179.241 C280.014,179.603 279.93,179.96 279.773,180.287 C279.617,180.613 279.391,180.902 279.111,181.133 C278.247,181.813 277.231,182.272 276.149,182.473 C274.789,182.696 273.41,182.798 272.031,182.775 C270.603,182.76 269.182,182.983 267.827,183.435 C266.693,183.829 265.724,184.59 265.07,185.597 C264.647,186.274 264.402,187.047 264.357,187.845 C264.296,188.14 264.318,188.447 264.422,188.731 L264.422,188.731 Z" id="Path" fill="#F9A799" fill-rule="nonzero"></path>
            <path d="M257.709,167.902 C257.618,168.891 257.618,169.886 257.709,170.875 C257.709,172.907 257.709,175.339 257.785,178.02 C257.861,180.7 257.785,183.132 257.785,185.164 C257.72,186.155 257.742,187.15 257.85,188.137 C258.086,187.167 258.206,186.173 258.207,185.175 C258.336,183.348 258.423,180.851 258.412,178.02 C258.401,175.188 258.293,172.68 258.163,170.853 C258.118,169.856 257.966,168.867 257.709,167.902 L257.709,167.902 Z" id="Path" fill="#F9A799" fill-rule="nonzero"></path>
            <path d="M267.794,192.049 C268.096,191.977 268.387,191.864 268.659,191.714 C269.011,191.534 269.398,191.431 269.793,191.413 C270.188,191.394 270.583,191.46 270.951,191.606 C271.176,191.729 271.367,191.908 271.503,192.126 C271.639,192.343 271.717,192.593 271.729,192.849 C271.763,193.494 271.716,194.14 271.588,194.773 C271.409,195.569 271.537,196.402 271.945,197.108 C272.203,197.471 272.543,197.767 272.938,197.974 C273.332,198.18 273.77,198.291 274.215,198.297 C274.652,198.294 275.085,198.202 275.486,198.028 C275.887,197.853 276.249,197.599 276.55,197.281 C277.113,196.716 277.49,195.991 277.63,195.206 C277.8,193.934 277.782,192.645 277.576,191.379 C277.464,190.523 277.205,189.693 276.809,188.926 C276.506,188.385 276.225,188.18 276.204,188.201 C276.182,188.223 276.377,188.493 276.604,189.023 C276.9,189.8 277.086,190.615 277.155,191.444 C277.297,192.663 277.279,193.895 277.101,195.108 C276.963,195.796 276.607,196.42 276.084,196.888 C275.562,197.355 274.902,197.641 274.204,197.702 C273.852,197.7 273.506,197.616 273.193,197.457 C272.879,197.297 272.608,197.067 272.399,196.784 C272.072,196.191 271.969,195.501 272.107,194.838 C272.228,194.157 272.257,193.463 272.194,192.774 C272.162,192.445 272.046,192.129 271.857,191.858 C271.667,191.587 271.411,191.37 271.113,191.228 C270.692,191.068 270.24,191.01 269.793,191.059 C269.345,191.108 268.916,191.262 268.54,191.509 C268.032,191.812 267.729,191.974 267.794,192.049 Z" id="Path" fill="#F9A799" fill-rule="nonzero"></path>
            <path d="M276.301,196.827 C276.225,197.109 276.256,197.409 276.387,197.67 C276.539,198.041 276.774,198.372 277.074,198.638 C277.374,198.904 277.73,199.098 278.117,199.205 C278.699,199.33 279.304,199.302 279.872,199.124 C280.44,198.946 280.953,198.624 281.359,198.189 C282.334,197.118 282.857,195.712 282.819,194.265 C282.819,192.835 282.373,191.441 281.543,190.277 C280.866,189.327 279.943,188.58 278.873,188.115 C278.172,187.798 277.416,187.619 276.647,187.585 C276.106,187.585 275.814,187.585 275.814,187.672 C276.812,187.8 277.785,188.077 278.7,188.493 C279.66,188.97 280.485,189.68 281.1,190.558 C281.818,191.648 282.195,192.927 282.181,194.233 C282.217,195.529 281.77,196.793 280.927,197.778 C280.584,198.166 280.149,198.46 279.66,198.632 C279.172,198.804 278.648,198.849 278.138,198.762 C277.798,198.685 277.478,198.537 277.2,198.326 C276.922,198.115 276.693,197.847 276.528,197.54 C276.377,197.13 276.376,196.827 276.301,196.827 Z" id="Path" fill="#F9A799" fill-rule="nonzero"></path>
            <path d="M266.033,206.814 C265.568,206.667 265.07,206.667 264.606,206.814 C263.389,207.08 262.295,207.742 261.493,208.695 L261.99,208.846 C261.924,208.177 261.816,207.513 261.666,206.857 C261.236,204.534 260.169,202.375 258.585,200.621 C259.644,202.648 260.485,204.782 261.093,206.987 C261.244,207.657 261.353,208.306 261.428,208.911 L261.515,209.581 L261.936,209.052 C262.653,208.168 263.61,207.511 264.692,207.16 C265.503,206.911 266.033,206.89 266.033,206.814 Z" id="Path" fill="#F9A799" fill-rule="nonzero"></path>
            <path d="M266.302,181.403 C266.162,181.468 266.735,182.484 268.053,183.1 C269.372,183.716 270.54,183.359 270.485,183.208 C270.431,183.057 269.405,183.067 268.324,182.559 C267.243,182.051 266.443,181.295 266.302,181.403 Z" id="Path" fill="#F9A799" fill-rule="nonzero"></path>
            <path d="M243.129,219.482 L274.68,221.741 C274.68,221.741 269.827,277.569 268.886,286.227 C267.946,294.885 262.401,307.942 243.129,307.942 C223.857,307.942 220.268,301.381 211.697,287.87 C221.803,280.866 237.854,259.95 237.854,259.95 L243.129,219.482 Z" id="Path" fill="#596AFF" fill-rule="nonzero"></path>
            <path d="M258.002,226.994 C257.84,227.465 257.645,227.924 257.418,228.367 L255.657,232.085 L249.431,244.937 L249.117,244.559 L257.299,242.127 L265.611,239.684 L266.217,239.511 L265.925,240.062 L259.44,252.655 L257.526,256.275 C257.315,256.718 257.065,257.141 256.781,257.54 C256.946,257.078 257.141,256.626 257.364,256.189 C257.818,255.259 258.445,254.027 259.137,252.503 L265.417,239.824 L265.73,240.203 L257.429,242.667 L249.236,245.067 L248.642,245.24 L248.923,244.688 L255.376,231.966 C256.165,230.464 256.802,229.232 257.278,228.313 C257.482,227.854 257.724,227.413 258.002,226.994 L258.002,226.994 Z" id="Path" fill="#E0E0E0" fill-rule="nonzero"></path>
            <path d="M255.019,280.693 C254.535,280.796 254.043,280.861 253.549,280.887 L249.441,281.244 L235.238,282.325 L235.411,281.86 L241.637,287.697 L247.939,293.642 L248.393,294.074 L247.766,294.074 L233.639,294.852 L229.553,295.025 C229.064,295.068 228.572,295.068 228.083,295.025 C228.564,294.93 229.052,294.872 229.542,294.852 L233.617,294.517 L247.733,293.544 L247.571,294.009 L241.248,288.075 L235.044,282.217 L234.59,281.795 L235.206,281.795 L249.42,280.941 L253.538,280.736 C254.03,280.684 254.525,280.669 255.019,280.693 L255.019,280.693 Z" id="Path" fill="#E0E0E0" fill-rule="nonzero"></path>
            <polygon id="Path" fill="#3E395F" fill-rule="nonzero" points="221.598 214.921 185.723 303.64 121.032 303.64 121.032 307.65 313.721 307.65 353.141 214.921"></polygon>
            <path d="M276.442,267.3 C275.145,271.765 271.362,274.586 267.989,273.613 C264.617,272.64 262.942,268.208 264.239,263.744 C265.536,259.28 269.33,256.459 272.702,257.432 C276.074,258.405 277.75,262.836 276.442,267.3 Z" id="Path" fill="#F5F6FF" fill-rule="nonzero"></path>
            <line x1="1.74846008e-07" y1="305.65" x2="484" y2="305.65" id="Path" stroke="#3E395F" stroke-width="4"></line>
        </g>
    </g>
</svg>